<svg id="SvgjsSvg1001" width="288" height="288" xmlns="http://www.w3.org/2000/svg" version="1.1" xmlns:xlink="http://www.w3.org/1999/xlink" xmlns:svgjs="http://svgjs.com/svgjs"><defs id="SvgjsDefs1002"></defs><g id="SvgjsG1008"><svg xmlns="http://www.w3.org/2000/svg" width="288" height="288" version="1.0" viewBox="0 0 570 570"><g transform="matrix(.1 0 0 -.1 0 570)" fill="#9e9c98" class="color000 svgShape"><path d="M1760 5073c-42-17-275-211-380-317-64-66-64-66-121-66-52 0-62-4-120-46l-63-47 33 42c18 23 31 44 28 47-12 12-88 6-125-10-72-33-110-112-91-194 5-25 7-59 3-76-4-17-6-48-5-69 2-36-5-45-115-160-129-135-282-333-389-502-146-233-300-572-385-849-54-176-36-180 63-15 245 407 543 800 818 1081 164 166 207 180 315 103 27-19 57-35 67-35 11 0 61 36 112 80 51 44 96 80 100 80 3 0-23-35-59-77l-66-77 197-198c109-109 203-198 209-198 6 0 21 11 34 25l24 25-34 38c-19 20-68 72-110 116-101 105-74 93 42-19 51-50 100-96 109-103 13-10 32-1 113 53 54 35 103 66 109 68 7 3-91 108-217 235l-228 230 11 35c13 39 1 78-40 128-12 15-24 47-26 72-9 77 9 100 275 350 64 60 72 72 72 104 0 31-9 45-58 95-57 56-70 63-102 51zm-195-252c-92-92-175-180-183-194-16-25-15-27 61-110 42-47 77-88 77-92 0-3-45 34-101 84-100 90-141 111-186 97-11-3-67-55-126-115-145-146-145-154 7-319 42-45 76-85 76-88 0-3-42 31-92 75-51 45-95 81-99 81-28 0-299-287-414-440-152-201-310-469-406-691-24-54-45-96-47-94-6 6 73 186 145 329 161 321 336 568 581 818 100 101 113 119 106 140-10 32-6 75 10 106 23 43 219 230 249 237 16 4 47 5 70 2 41-6 42-5 132 82 80 77 294 261 304 261 2 0-71-76-164-169zM3885 5070c-11-4-41-30-67-58-38-41-48-58-48-86 0-31 9-44 67-98 272-256 289-278 280-353-3-27-15-59-31-80-40-52-51-90-36-126l13-31-228-228c-126-126-227-231-225-233 3-2 34-21 70-42 36-21 81-51 101-67 20-15 40-28 44-28 3 0 56 48 116 108 130 126 167 149 59 36-41-44-93-98-115-121l-39-43 24-25c13-14 28-25 34-25 15 0 396 382 396 397 0 7-27 44-60 83-34 38-58 70-55 70 3 0 48-36 99-80 52-44 102-80 112-80 11 0 41 16 68 35 106 75 152 61 301-89 280-283 636-753 845-1116 48-83 73-111 85-98 6 6-57 212-105 340-166 443-412 843-712 1154l-103 107-3 61c-3 72-3 87 0 164 2 49-2 66-24 99-31 47-87 76-146 76-53 0-61-7-35-36 36-40 38-53 2-24-59 47-91 60-145 59-49-1-51 0-115 64-116 119-350 312-385 318-10 2-28 0-39-4zm289-256c50-45 111-102 135-127 43-45 44-45 95-40 71 7 91-5 213-129 107-109 119-132 110-201l-6-41 122-126c242-248 400-472 566-799 73-143 164-351 158-357-2-3-17 26-32 63-52 126-190 387-275 521-47 74-132 193-189 265-100 127-357 397-377 397-5 0-52-37-104-82-102-88-102-86 7 37 81 93 93 112 93 156 0 27-16 48-107 140-59 60-115 112-126 115-44 14-83-7-186-97-116-103-120-100-18 14 66 74 69 79 57 103-8 13-91 102-184 197-175 176-155 172 48-9zM2634 3851c-35-21-31 0-60-313-10-103-20-186-22-184-3 3-41 379-42 410 0 22-241-36-346-84-165-75-348-235-455-397-101-155-186-364-240-591-12-51-20-94-18-96 2-2 147-1 322 2 176 4 321 4 324 0 2-5-9-8-26-8-37 0-488-65-626-90-92-17-102-21-131-54-43-49-54-96-54-224l0-110-31-7c-41-9-104-73-112-115-18-88 3-156 57-185 31-17 39-17 232 9 209 28 498 57 774 78 219 16 1138 16 1365 0 233-17 545-48 757-74 195-24 217-22 252 25 17 23 21 42 20 97 0 58-4 73-27 103-14 19-47 45-72 57l-45 22 0 111c0 97-3 119-24 162-13 28-33 59-45 69-25 22-162 48-511 96-230 32-267 38-259 43 2 2 148 0 324-4 176-4 322-5 324-3 7 6-47 217-81 319-120 359-350 638-632 765-70 32-217 74-297 85l-46 7-6-34c-3-18-11-107-18-198-7-91-16-174-20-185-7-18-8-18-8 5-2 34-29 353-36 418-6 46-11 56-38 73-29 17-52 19-212 19-159 0-184-2-211-19zm-444-305c0-2-39-35-87-72-150-120-276-286-399-527-36-71-68-127-70-124-3 3 2 33 10 68 54 236 180 440 342 555 73 52 204 116 204 100zm1395-30c221-102 388-324 453-601 12-49 19-91 17-93-2-2-29 46-60 108-139 277-264 437-458 583-61 46-47 47 48 3zm-1030-428c-44-45-84-96-102-133-33-64-63-180-63-242-1-32-2-35-11-19-7 11-10 54-7 110 5 99 28 159 91 240 28 35 138 116 157 116 4 0-25-33-65-72zm600 22c96-66 157-180 163-305 2-44-1-91-6-105-10-23-11-22-12 15-2 137-60 267-164 371-73 73-66 82 19 24zm-151-19c133-65 209-187 210-336 0-70-4-90-31-147-39-82-105-151-181-186-50-24-70-27-157-27-87 0-107 3-157 27-224 105-284 402-117 583 82 88 173 127 291 122 62-3 89-10 142-36zm516-855c264-22 369-34 595-67 110-16 206-29 214-29 8 0 12-3 9-6-3-3-97 4-209 15-368 37-667 52-1138 58-556 7-950-9-1440-58-112-11-206-18-209-15-3 3 1 6 9 6 8 0 105 13 216 30 216 32 553 65 803 80 222 12 928 4 1150-14zm-110-206c185-14 514-54 700-86 248-42 221-42-185 0-365 38-507 47-920 53-515 8-834-7-1338-63-126-14-234-23-239-22-15 5 265 52 457 78 130 17 424 42 620 54 121 7 764-3 905-14zm-2003-126c-3-3-12-4-19-1-8 3-5 6 6 6 11 1 17-2 13-5zm2906-1c-7-2-19-2-25 0-7 3-2 5 12 5 14 0 19-2 13-5z" fill="#9e9c98" class="color000 svgShape"></path><path d="M2770 3106 c-106 -22 -189 -90 -236 -190 -35 -75 -29 -100 6 -29 3571 102 136 168 166 71 31 182 35 253 8 92 -35 172 -116 205 -210 11 -31 13
-32 14 -11 0 41 -54 142 -98 182 -56 51 -108 75 -183 88 -35 5 -66 10 -69 9
-3 0 -30 -6 -60 -13z" fill="#9e9c98" class="color000 svgShape"></path><path d="M2900 3000c18-34 122-140 167-171 72-50 49-4-51 99-74 77-141 118-116 72zM2720 2984c0-45 333-374 356-351 7 7-74 107-150 185-79 83-206 184-206 166zM2610 2885c0-14 94-127 163-197 83-82 184-164 193-155 10 9-86 124-173 207-95 92-183 161-183 145zM2580 2704c0-15 75-107 118-145 49-43 102-75 102-62 0 19-95 127-148 168-54 43-72 52-72 39z" fill="#9e9c98" class="color000 svgShape"></path><path d="M3166 2662c-8-35-61-110-104-148-38-33-105-63-168-76-138-28-305 69-367 212-11 26-16 30-16 14-2-33 47-120 92-165 23-23 67-54 97-68 46-22 69-26 145-26 77 0 98 4 145 26 30 15 74 46 98 69 49 50 95 138 90 172-3 20-5 19-12-10zM3608 1748c12-13 264-268 559-567l538-543 55 15c30 8 72 15 93 15 21 0 46 7 55 15 9 8 40 21 67 29 57 16 65 34 45 103-10 33-82 110-442 471l-430 431-101 11c-56 6-140 14-187 18l-85 6 120-123c448-460 795-825 795-835 0-4-37 28-83 72-45 43-190 182-322 309-132 126-321 309-420 406-175 171-182 177-229 183l-50 6 22-22zM1819 1577c-102-100-284-276-404-392-121-115-264-254-319-307-56-53-103-95-105-93-4 4 234 256 559 590 91 93 210 216 265 273l99 102-65-6c-35-3-120-12-188-19l-125-14-413-413c-228-227-423-428-434-446-12-19-21-52-22-79l-2-47 50-14c28-8 58-21 67-29 10-9 40-17 70-18 29-1 70-7 92-15l39-12 561 561 561 561-50 0-50-1-186-182z" fill="#9e9c98" class="color000 svgShape"></path></g></svg></g></svg>